<?xml version="1.0" standalone="no"?>
<!DOCTYPE svg PUBLIC "-//W3C//DTD SVG 20010904//EN"
 "http://www.w3.org/TR/2001/REC-SVG-20010904/DTD/svg10.dtd">
<svg version="1.0" xmlns="http://www.w3.org/2000/svg"
 width="1024.000000pt" height="1024.000000pt" viewBox="0 0 1024.000000 1024.000000"
 preserveAspectRatio="xMidYMid meet">

<g transform="translate(0.000000,1024.000000) scale(0.100000,-0.100000)"
fill="#000000" stroke="none">
<path d="M0 5120 l0 -5120 5120 0 5120 0 0 5120 0 5120 -5120 0 -5120 0 0
-5120z m2913 1150 l259 0 -6 -27 c-4 -16 -12 -45 -17 -65 l-10 -38 -149 0
-150 0 0 -430 0 -430 -70 0 -70 0 0 430 0 430 -160 0 -160 0 0 72 0 71 137 -6
c75 -4 253 -7 396 -7z m2569 -293 l3 -303 150 163 150 162 88 1 c48 0 87 -3
87 -6 0 -4 -68 -76 -151 -161 l-150 -154 38 -47 c20 -26 95 -116 166 -199
l128 -153 -84 0 -84 0 -119 141 c-65 78 -122 147 -127 153 -4 7 -23 -7 -52
-39 l-44 -50 -1 -102 0 -103 -70 0 -70 0 0 500 0 500 70 0 70 0 2 -303z
m-1407 42 c69 -13 102 -28 150 -70 l35 -31 0 41 0 41 70 0 70 0 0 -360 0 -360
-70 0 -70 0 0 41 0 41 -40 -32 c-167 -132 -422 -65 -522 138 -63 127 -47 298
38 413 59 80 126 121 226 138 29 5 53 9 54 10 0 0 27 -4 59 -10z m930 -17 c84
-33 173 -111 200 -176 32 -79 34 -76 -42 -76 l-68 1 -28 44 c-73 115 -233 137
-338 47 -150 -129 -106 -382 78 -443 96 -31 209 11 261 96 l27 44 68 1 c76 0
77 -2 47 -69 -62 -136 -213 -222 -366 -208 -215 20 -365 216 -334 435 34 240
276 388 495 304z m1855 -3 c60 -27 114 -81 141 -143 24 -54 25 -71 32 -413 l3
-163 -68 0 -68 0 0 216 c0 248 -7 290 -59 344 -85 90 -226 69 -296 -44 l-30
-49 -3 -234 -4 -233 -64 0 -64 0 0 360 0 360 65 0 65 0 0 -42 0 -42 33 31 c85
81 206 101 317 52z m770 0 c25 -11 60 -34 78 -51 l32 -32 0 42 0 42 70 0 70 0
0 -347 c0 -192 -4 -375 -9 -408 -19 -129 -105 -242 -216 -285 -83 -32 -207
-33 -286 -1 -93 36 -175 124 -204 219 -6 21 -5 22 69 22 63 0 76 -3 76 -16 0
-31 44 -77 97 -101 45 -21 66 -24 118 -21 133 8 215 100 215 240 l0 71 -32
-27 c-18 -15 -57 -38 -86 -53 -48 -23 -63 -25 -140 -21 -75 3 -96 9 -150 38
-74 39 -125 92 -161 169 -23 50 -26 68 -26 166 0 105 2 114 33 177 84 171 286
249 452 177z m-4020 -49 l0 -70 -36 0 c-91 0 -183 -60 -223 -145 -19 -41 -21
-62 -21 -250 l0 -205 -70 0 -70 0 0 365 0 366 63 -3 62 -3 3 -57 c3 -60 14
-72 32 -38 27 50 146 109 223 110 l37 0 0 -70z m2610 -310 l0 -360 -70 0 -70
0 0 360 0 360 70 0 70 0 0 -360z m-2295 -655 c85 -23 152 -62 220 -130 55 -54
112 -144 130 -202 6 -22 4 -23 -67 -23 l-74 0 -18 40 c-24 54 -100 131 -158
158 -312 151 -621 -198 -464 -525 91 -189 321 -258 495 -149 44 28 113 102
136 145 16 31 17 32 81 30 36 -1 67 -5 69 -10 8 -12 -26 -82 -71 -145 -86
-122 -214 -193 -363 -202 -152 -9 -271 36 -377 142 -78 78 -122 163 -141 275
-64 368 257 686 602 596z m1985 -500 l0 -505 -70 0 -70 0 0 45 0 46 -27 -27
c-104 -100 -296 -104 -425 -9 -56 41 -113 123 -134 190 -21 70 -18 194 5 261
70 199 287 302 468 224 24 -10 58 -30 77 -45 l33 -25 7 31 c3 17 6 96 6 175
l0 144 65 0 65 0 0 -505z m-1125 244 c161 -30 276 -147 306 -313 30 -162 -56
-337 -200 -410 -188 -96 -409 -20 -503 172 -31 62 -33 74 -33 167 0 97 2 104
38 177 64 131 166 200 323 217 6 0 37 -4 69 -10z m1752 -30 c78 -37 154 -119
182 -194 14 -38 21 -79 21 -130 l0 -75 -288 0 c-159 0 -291 -3 -294 -6 -4 -3
0 -25 9 -49 19 -57 96 -130 154 -145 89 -24 200 12 244 79 19 29 23 31 88 31
40 0 67 -4 67 -10 0 -25 -45 -96 -86 -135 -210 -205 -566 -81 -613 215 -22
134 19 265 110 352 116 109 267 135 406 67z m-164 -1516 c-23 -2 -64 -2 -90 0
-26 2 -7 3 42 3 50 0 71 -1 48 -3z m77 -3 c0 -5 -7 -7 -15 -4 -8 4 -15 8 -15
10 0 2 7 4 15 4 8 0 15 -4 15 -10z m1860 -40 l0 -50 -852 2 c-469 1 -793 4
-720 5 83 2 131 7 127 13 -8 13 1 13 25 0 12 -6 21 -7 25 0 3 5 -4 12 -17 14
-13 3 -32 7 -43 9 -12 3 -6 6 15 7 29 3 26 4 -20 10 -54 7 -53 7 30 10 l85 3
-85 8 c-47 4 -126 7 -177 8 -79 1 -92 -1 -96 -16 -4 -14 -5 -12 -6 5 l-1 22
855 0 855 0 0 -50z m-1843 -32 c-2 -13 -4 -3 -4 22 0 25 2 35 4 23 2 -13 2
-33 0 -45z m-89 -15 c-27 -2 -69 -2 -95 0 -27 2 -5 3 47 3 52 0 74 -1 48 -3z
m-228 -117 c0 -2 -9 -6 -20 -9 -11 -3 -20 -1 -20 4 0 5 9 9 20 9 11 0 20 -2
20 -4z m510 -41 l0 -45 -265 0 c-146 0 -265 3 -265 8 0 4 87 6 192 6 109 -1
173 2 148 6 l-45 7 40 3 c39 2 39 3 10 10 -29 8 -29 8 10 10 l40 3 -50 7 c-27
4 -41 9 -30 11 11 2 -50 6 -135 9 -146 5 -140 6 98 8 l252 2 0 -45z m360 0 l0
-45 -120 0 -120 0 0 45 0 45 120 0 120 0 0 -45z m970 -5 l0 -50 -259 0 -260 0
21 50 21 50 238 0 239 0 0 -50z m-1873 -2 c-3 -8 -6 -5 -6 6 -1 11 2 17 5 13
3 -3 4 -12 1 -19z m-180 -35 c-20 -2 -52 -2 -70 0 -17 2 0 4 38 4 39 0 53 -2
32 -4z m2053 -162 l0 -51 -645 0 -645 0 0 48 0 49 645 2 645 2 0 -50z m-2102
32 c-10 -2 -26 -2 -35 0 -10 3 -2 5 17 5 19 0 27 -2 18 -5z m472 -38 l0 -45
-262 2 c-210 2 -228 3 -89 5 133 3 178 7 194 18 21 15 21 15 -8 16 -24 1 -25
3 -7 6 12 2 22 9 22 14 0 5 28 10 63 11 34 1 -35 5 -153 8 l-215 6 228 2 227
2 0 -45z m60 -200 l0 -45 -290 0 -290 0 1 38 c1 20 3 29 6 20 2 -10 11 -18 19
-18 10 0 12 5 8 13 -5 7 0 6 11 -3 17 -14 17 -15 -11 -21 l-29 -5 30 -5 c17
-2 62 -2 100 2 61 5 64 6 21 7 -68 3 -55 8 33 16 92 7 103 15 25 18 -48 1 -52
2 -24 7 22 4 -8 8 -80 11 -77 4 -19 7 178 8 l292 2 0 -45z m610 0 l0 -45 -240
0 -240 0 0 45 0 45 240 0 240 0 0 -45z m-200 -210 l0 -45 -240 0 -240 0 0 44
c0 33 4 45 17 48 9 2 117 2 240 0 l223 -3 0 -44z m1426 10 c3 -25 4 -48 2 -50
-6 -6 -988 -13 -1165 -8 l-143 4 0 43 c0 23 3 46 7 49 3 4 296 7 649 7 l643 0
7 -45z m-2036 -10 l0 -45 -190 0 -190 0 0 45 0 45 190 0 190 0 0 -45z m1118
-179 c2 -15 1 -40 -3 -54 l-6 -25 -272 6 c-150 4 -424 7 -609 7 l-338 0 0 45
0 45 528 3 c290 1 565 2 612 2 l85 0 3 -29z m967 -21 l0 -50 -357 -3 -358 -2
0 55 0 55 358 -2 357 -3 0 -50z m-2315 0 l0 -45 -75 0 -75 0 0 45 0 45 75 0
75 0 0 -45z m388 -208 l3 -47 -273 2 -273 3 -1 40 c0 22 1 43 3 48 3 4 124 6
271 5 l267 -3 3 -48z m1602 3 l0 -50 -470 0 c-258 0 -470 3 -470 7 0 4 7 27
16 50 l17 43 453 0 454 0 0 -50z m-390 -206 l0 -54 -560 0 -560 0 0 50 0 50
258 3 c141 1 393 3 560 4 l302 1 0 -54z m-1510 -4 l0 -51 -122 3 -123 3 -3 48
-3 47 125 0 126 0 0 -50z m260 0 l0 -50 -70 0 -70 0 0 50 0 50 70 0 70 0 0
-50z"/>
<path d="M3970 5891 c-114 -37 -172 -120 -174 -246 -2 -150 95 -255 234 -255
244 0 329 350 116 475 -48 28 -132 41 -176 26z"/>
<path d="M7429 5886 c-58 -20 -93 -51 -125 -108 -25 -46 -29 -63 -29 -134 0
-72 3 -86 30 -130 102 -164 328 -158 411 12 51 104 31 239 -43 305 -74 64
-162 84 -244 55z"/>
<path d="M5455 4595 c-156 -60 -207 -291 -92 -422 106 -120 297 -101 376 39
99 172 -1 381 -186 394 -37 2 -73 -2 -98 -11z"/>
<path d="M4675 4601 c-80 -20 -154 -89 -175 -166 -7 -24 -11 -75 -8 -113 5
-87 42 -153 109 -195 153 -94 341 10 356 197 11 128 -58 238 -168 270 -57 17
-68 18 -114 7z"/>
<path d="M6305 4594 c-22 -8 -55 -29 -73 -47 -33 -31 -72 -95 -72 -117 0 -6
75 -10 221 -10 l222 0 -7 32 c-10 48 -55 99 -116 131 -60 30 -112 34 -175 11z"/>
<path d="M6978 3163 c6 -2 18 -2 25 0 6 3 1 5 -13 5 -14 0 -19 -2 -12 -5z"/>
<path d="M6488 2963 c6 -2 18 -2 25 0 6 3 1 5 -13 5 -14 0 -19 -2 -12 -5z"/>
<path d="M6573 2963 c9 -2 23 -2 30 0 6 3 -1 5 -18 5 -16 0 -22 -2 -12 -5z"/>
<path d="M6335 2721 c4 -8 2 -17 -6 -22 -9 -6 -10 -9 -2 -9 19 0 27 21 13 33
-10 9 -11 9 -5 -2z"/>
<path d="M6232 2708 c3 -7 20 -14 39 -16 40 -4 35 5 -10 18 -23 6 -31 6 -29
-2z"/>
</g>
</svg>
